<svg width="1600" height="980" viewBox="0 0 1600 980" fill="none" xmlns="http://www.w3.org/2000/svg">
  <defs>
    <linearGradient id="bgA" x1="0" y1="0" x2="1600" y2="980" gradientUnits="userSpaceOnUse">
      <stop stop-color="#0F172A"/>
      <stop offset="0.45" stop-color="#1D4ED8"/>
      <stop offset="1" stop-color="#60A5FA"/>
    </linearGradient>
    <linearGradient id="cardA" x1="0" y1="0" x2="1" y2="1">
      <stop stop-color="#FFFFFF" stop-opacity="0.96"/>
      <stop offset="1" stop-color="#DBEAFE" stop-opacity="0.88"/>
    </linearGradient>
    <filter id="blurA" x="-120" y="-120" width="500" height="500">
      <feGaussianBlur stdDeviation="48"/>
    </filter>
  </defs>
  <rect width="1600" height="980" fill="url(#bgA)"/>
  <circle cx="1230" cy="180" r="120" fill="#93C5FD" fill-opacity="0.28" filter="url(#blurA)"/>
  <circle cx="280" cy="820" r="120" fill="#C4B5FD" fill-opacity="0.18" filter="url(#blurA)"/>
  <rect x="96" y="72" width="1408" height="76" rx="28" fill="white" fill-opacity="0.12" stroke="white" stroke-opacity="0.2"/>
  <text x="150" y="118" fill="white" font-size="22" font-family="Arial, sans-serif" font-weight="700">Migration Services</text>
  <text x="820" y="118" fill="white" font-size="18" font-family="Arial, sans-serif">Home</text>
  <text x="920" y="118" fill="white" font-size="18" font-family="Arial, sans-serif">Solutions</text>
  <text x="1065" y="118" fill="white" font-size="18" font-family="Arial, sans-serif">How It Works</text>
  <text x="1235" y="118" fill="white" font-size="18" font-family="Arial, sans-serif">Pricing</text>
  <rect x="1332" y="90" width="126" height="40" rx="20" fill="white"/>
  <text x="1368" y="116" fill="#1D4ED8" font-size="18" font-family="Arial, sans-serif" font-weight="700">Contact</text>
  <rect x="146" y="214" width="290" height="52" rx="26" fill="white" fill-opacity="0.1" stroke="white" stroke-opacity="0.26"/>
  <text x="185" y="247" fill="white" font-size="18" font-family="Arial, sans-serif">Premium enterprise migration</text>
  <text x="146" y="378" fill="white" font-size="88" font-family="Arial, sans-serif" font-weight="800">Move critical</text>
  <text x="146" y="470" fill="white" font-size="88" font-family="Arial, sans-serif" font-weight="800">systems with</text>
  <text x="146" y="562" fill="white" font-size="88" font-family="Arial, sans-serif" font-weight="800">clarity and control.</text>
  <text x="146" y="648" fill="#DBEAFE" font-size="32" font-family="Arial, sans-serif">A sharper, more executive-looking hero with stronger depth,</text>
  <text x="146" y="690" fill="#DBEAFE" font-size="32" font-family="Arial, sans-serif">glass navigation, and a richer dashboard card.</text>
  <rect x="146" y="748" width="258" height="72" rx="22" fill="white"/>
  <text x="195" y="793" fill="#1D4ED8" font-size="28" font-family="Arial, sans-serif" font-weight="700">Start Project</text>
  <rect x="426" y="748" width="258" height="72" rx="22" fill="white" fill-opacity="0.08" stroke="white" stroke-opacity="0.22"/>
  <text x="472" y="793" fill="white" font-size="28" font-family="Arial, sans-serif" font-weight="700">See Process</text>
  <rect x="146" y="858" width="190" height="88" rx="24" fill="white" fill-opacity="0.1" stroke="white" stroke-opacity="0.18"/>
  <rect x="360" y="858" width="190" height="88" rx="24" fill="white" fill-opacity="0.1" stroke="white" stroke-opacity="0.18"/>
  <rect x="574" y="858" width="190" height="88" rx="24" fill="white" fill-opacity="0.1" stroke="white" stroke-opacity="0.18"/>
  <text x="176" y="905" fill="white" font-size="34" font-family="Arial, sans-serif" font-weight="800">30+</text>
  <text x="389" y="905" fill="white" font-size="34" font-family="Arial, sans-serif" font-weight="800">10k+</text>
  <text x="607" y="905" fill="white" font-size="34" font-family="Arial, sans-serif" font-weight="800">Zero</text>
  <rect x="875" y="152" width="590" height="744" rx="44" fill="url(#cardA)" stroke="#BFDBFE" stroke-width="2"/>
  <rect x="918" y="200" width="504" height="250" rx="34" fill="#111827"/>
  <rect x="946" y="228" width="448" height="194" rx="26" fill="#1E293B"/>
  <path d="M980 385 C1050 290 1110 350 1180 265 C1250 190 1310 300 1365 230" stroke="#60A5FA" stroke-width="5"/>
  <path d="M980 340 C1040 270 1120 285 1190 230 C1270 170 1330 270 1378 205" stroke="#34D399" stroke-width="3"/>
  <text x="918" y="506" fill="#64748B" font-size="18" font-family="Arial, sans-serif" letter-spacing="4">MIGRATION CONTROL CENTER</text>
  <text x="918" y="566" fill="#0F172A" font-size="34" font-family="Arial, sans-serif" font-weight="800">Hero Option A</text>
  <text x="918" y="608" fill="#0F172A" font-size="34" font-family="Arial, sans-serif" font-weight="800">Editorial glass + dashboard</text>
  <rect x="1278" y="520" width="124" height="90" rx="30" fill="#DBEAFE"/>
  <text x="1318" y="570" fill="#2563EB" font-size="22" font-family="Arial, sans-serif" font-weight="700">Live</text>
  <text x="1309" y="598" fill="#2563EB" font-size="22" font-family="Arial, sans-serif" font-weight="700">plan</text>
  <rect x="918" y="660" width="220" height="166" rx="26" fill="white"/>
  <rect x="1162" y="660" width="220" height="166" rx="26" fill="white"/>
  <text x="952" y="736" fill="#0F172A" font-size="24" font-family="Arial, sans-serif" font-weight="700">Infrastructure</text>
  <text x="1196" y="736" fill="#0F172A" font-size="24" font-family="Arial, sans-serif" font-weight="700">Data</text>
</svg>
